<?xml version="1.0" standalone="no"?><!DOCTYPE svg PUBLIC "-//W3C//DTD SVG 1.1//EN" "http://www.w3.org/Graphics/SVG/1.1/DTD/svg11.dtd"><svg t="1623056224049" class="icon" viewBox="0 0 1911 1024" version="1.1" xmlns="http://www.w3.org/2000/svg" p-id="28806" xmlns:xlink="http://www.w3.org/1999/xlink" width="89.578125" height="48"><defs><style type="text/css"></style></defs><path d="M69.2224 35.2256h1238.6304c37.956267 0 69.154133 26.8288 69.154133 59.5968V929.109333c0 32.768-31.1296 59.5968-69.154133 59.5968H69.2224c-38.024533 0-69.2224-26.8288-69.2224-59.5968V94.890667C0 62.0544 31.197867 35.2256 69.2224 35.2256z m140.288 305.5616c40.96 35.2256 106.222933 35.2256 147.182933 0 39.936-35.293867 39.936-91.477333 0-126.7712-40.96-35.293867-106.222933-35.293867-147.182933 0-40.96 35.2256-40.96 91.477333 0 126.7712z m1686.9376 477.661867V206.4384c0-38.570667-46.762667-62.941867-86.698667-44.4416l-333.346133 100.693333c-18.432 9.284267-30.173867 26.077867-30.173867 44.509867v421.410133c0 19.319467 12.629333 36.932267 33.109334 45.329067l333.277866 89.838933c38.980267 15.906133 83.831467-8.3968 83.831467-45.329066z" p-id="28807" fill="#ffffff"></path></svg>