<svg
 xmlns="http://www.w3.org/2000/svg"
 xmlns:xlink="http://www.w3.org/1999/xlink"
 width="27px" height="27px">
<path fill-rule="evenodd"  fill="currentColor"
 d="M20.070,12.841 C18.747,11.428 18.819,9.211 20.232,7.888 C21.645,6.565 23.862,6.638 25.185,8.050 C26.508,9.463 26.435,11.681 25.023,13.003 C23.610,14.326 21.392,14.254 20.070,12.841 ZM13.842,6.191 C12.519,4.778 12.592,2.561 14.005,1.238 C15.417,-0.085 17.635,-0.012 18.957,1.400 C20.280,2.813 20.208,5.030 18.795,6.353 C17.382,7.676 15.165,7.603 13.842,6.191 ZM12.656,12.102 C11.244,13.425 9.026,13.352 7.703,11.939 C6.381,10.527 6.453,8.309 7.866,6.986 C9.278,5.664 11.496,5.736 12.819,7.149 C14.142,8.561 14.069,10.779 12.656,12.102 ZM6.006,18.329 C4.594,19.652 2.376,19.579 1.053,18.167 C-0.270,16.754 -0.197,14.537 1.216,13.214 C2.628,11.891 4.846,11.964 6.169,13.376 C7.492,14.789 7.419,17.007 6.006,18.329 ZM12.396,20.027 C13.719,21.439 13.646,23.657 12.234,24.980 C10.821,26.302 8.604,26.230 7.281,24.817 C5.958,23.404 6.031,21.187 7.443,19.864 C8.856,18.541 11.073,18.614 12.396,20.027 ZM14.093,13.637 C15.506,12.314 17.724,12.386 19.046,13.799 C20.369,15.212 20.296,17.429 18.884,18.752 C17.471,20.075 15.254,20.002 13.931,18.589 C12.608,17.177 12.681,14.959 14.093,13.637 ZM25.274,20.449 C26.597,21.862 26.524,24.079 25.111,25.402 C23.699,26.725 21.481,26.652 20.159,25.240 C18.836,23.827 18.908,21.609 20.321,20.287 C21.734,18.964 23.951,19.037 25.274,20.449 Z"/>
</svg>
