<?xml version="1.0" standalone="no"?><!DOCTYPE svg PUBLIC "-//W3C//DTD SVG 1.1//EN" "http://www.w3.org/Graphics/SVG/1.1/DTD/svg11.dtd"><svg t="1621589391239" class="icon" viewBox="0 0 1024 1024" version="1.1" xmlns="http://www.w3.org/2000/svg" p-id="4656" xmlns:xlink="http://www.w3.org/1999/xlink" width="48" height="48"><defs><style type="text/css"></style></defs><path d="M320.097919 819.202867c9.369469 36.351491 23.55167 70.70621 41.881013 102.398567H230.396774a230.396774 230.396774 0 0 1 0-460.793549h166.653667a409.28707 409.28707 0 0 0-60.056759 102.398566H230.396774a127.998208 127.998208 0 1 0 0 255.996416h89.701145z m598.51962-458.899175A127.998208 127.998208 0 0 0 793.58889 204.811469H298.491821a153.649049 153.649049 0 1 1 0-102.398567h495.097069a230.396774 230.396774 0 0 1 211.043445 322.965079 411.130244 411.130244 0 0 0-86.014796-65.02309zM716.789965 921.601434a204.797133 204.797133 0 1 0 0-409.594266 204.797133 204.797133 0 0 0 0 409.594266z m0 102.398566a307.195699 307.195699 0 1 1 0-614.391399 307.195699 307.195699 0 0 1 0 614.391399z m25.599642-358.394982h76.696526a51.199283 51.199283 0 1 1 0 102.398566H742.389607a51.199283 51.199283 0 1 1 0-102.398566zM665.590682 716.804301v-102.398567a51.199283 51.199283 0 1 1 102.398566 0v102.398567a51.199283 51.199283 0 1 1-102.398566 0z m51.199283 0h51.199283v51.199283h-51.199283v-51.199283z" p-id="4657" fill="currentColor"></path></svg>
