<svg
 xmlns="http://www.w3.org/2000/svg"
 xmlns:xlink="http://www.w3.org/1999/xlink"
 width="22px" height="25px">
<path fill-rule="evenodd"  fill="currentColor"
 d="M18.639,11.584 C18.641,12.443 18.394,13.284 18.280,14.096 C22.440,17.370 21.636,22.552 21.636,22.552 C19.895,18.898 17.027,18.979 16.647,19.630 C14.967,22.506 12.402,24.239 9.524,24.246 C4.442,24.259 0.309,18.684 0.291,11.629 C0.274,4.574 4.383,0.264 9.465,0.252 C14.546,0.239 18.621,4.529 18.639,11.584 ZM7.439,17.867 C7.442,19.108 8.451,20.112 9.693,20.109 C10.934,20.106 11.938,19.097 11.935,17.856 C11.932,16.614 10.923,15.610 9.681,15.613 C8.440,15.616 7.436,16.625 7.439,17.867 ZM7.425,12.247 C7.428,13.489 8.437,14.492 9.679,14.489 C10.920,14.486 11.924,13.477 11.921,12.236 C11.918,10.994 10.909,9.991 9.668,9.994 C8.426,9.997 7.422,11.006 7.425,12.247 ZM7.411,6.627 C7.414,7.869 8.423,8.873 9.665,8.870 C10.906,8.867 11.910,7.858 11.907,6.616 C11.904,5.375 10.895,4.371 9.653,4.374 C8.412,4.377 7.408,5.386 7.411,6.627 Z"/>
</svg>
