<?xml version="1.0" standalone="no"?><!DOCTYPE svg PUBLIC "-//W3C//DTD SVG 1.1//EN" "http://www.w3.org/Graphics/SVG/1.1/DTD/svg11.dtd"><svg t="1621238319895" class="icon" viewBox="0 0 1024 1024" version="1.1" xmlns="http://www.w3.org/2000/svg" p-id="14150" width="37" height="37" xmlns:xlink="http://www.w3.org/1999/xlink"><defs><style type="text/css"></style></defs><path d="M843.08943881 561.7951374L843.08943881 820.6714922a153.36980656 153.36980656 0 0 1-153.18127623 153.18127623l-518.4597001 0c-84.4617981 0-153.18127484-68.71947674-153.18127623-153.18127623l0-518.4597001c0-84.4617981 68.71947674-153.18127484 153.18127623-153.18127623l259.22985005 0 0 70.69905014-259.22985005 0c-45.48305605 0-82.4822247 36.99917003-82.48222609 82.48222609l0 518.45970009c0 45.48305605 36.99917003 82.4822247 82.4822261 82.4822261l518.45970009 0c45.48305605 0 82.4822247-36.99917003 82.48222609-82.48222609l0-258.85278799 70.69905014 0z" p-id="14151" fill="currentColor"></path><path d="M960.92118858 184.38004094L960.92118858 750.34950412l-70.69905014 0L890.22213844 184.38004094c0-45.48305605-36.99917003-82.4822247-82.4822247-82.4822247L237.85843599 101.89781624l0-70.69905014 569.85791094 0a153.36980656 153.36980656 0 0 1 153.20484165 153.18127484z" p-id="14152" fill="currentColor"></path><path d="M428.93440309 709.69755029l0 70.69905014-217.23461565 0 0-217.25818108 70.69905014 0 0 146.55913094zM767.4885874 224.63136728l0 217.23461427-70.69905014 0 0-146.53556413-146.58269775 1e-8 0-70.69905015z" p-id="14153" fill="currentColor"></path><path d="M272.02964402 770.0509723L222.04541557 720.04317842l485.066183-485.06618301 50.00779527 49.98422844z" p-id="14154" fill="currentColor"></path></svg>
