<svg class="img-fluid" id="outputsvg" xmlns="http://www.w3.org/2000/svg" style="transform: none; transform-origin: 50% 50%; cursor: move;" width="37" height="37" viewBox="0 0 370 370"><g id="l1mpTRPXQ7xWC2XZkyU0O5w" fill="currentColor" style="transform: none;"><g><path id="pXu8yADJo" d="M130 300 c0 -6 9 -29 21 -52 14 -28 17 -44 10 -51 -13 -13 4 -47 23 -47 23 0 40 28 27 44 -10 11 -7 25 14 65 l25 51 -60 0 c-35 0 -60 -4 -60 -10z"></path><path id="pjsgvT59F" d="M96 248 c-26 -40 -29 -74 -11 -113 59 -123 248 -51 205 79 -12 36 -36 63 -47 52 -3 -3 1 -14 10 -24 45 -50 18 -135 -46 -147 -49 -9 -92 15 -107 60 -10 31 -9 40 9 71 24 40 25 44 11 44 -5 0 -16 -10 -24 -22z"></path><path id="pQR7VBPJl" d="M120 205 c-27 -72 60 -126 115 -70 28 27 31 52 11 81 -18 24 -31 12 -15 -14 10 -17 10 -25 -4 -46 -10 -14 -26 -26 -37 -26 -26 0 -63 37 -56 56 3 8 9 21 12 29 3 8 1 15 -5 15 -6 0 -16 -11 -21 -25z"></path></g></g></svg>
