<svg class="img-fluid" id="outputsvg" xmlns="http://www.w3.org/2000/svg" width="37" height="37" viewBox="0 0 370 370" style="transform: none; transform-origin: 50% 50%; cursor: move;"><g id="lULkoUyDzDaBTb3VRH5vMc" fill="currentColor" style="transform: none;"><g><path id="pyPE1s6vA" d="M90 260 l0 -50 95 0 95 0 0 51 c0 43 -3 50 -17 47 -13 -2 -17 -11 -15 -30 2 -14 -2 -29 -7 -33 -7 -4 -11 7 -11 29 0 29 -4 36 -19 36 -15 0 -21 -8 -24 -37 l-4 -38 -1 38 c-2 30 -6 37 -22 37 -16 0 -20 -7 -20 -36 0 -19 -4 -33 -8 -30 -5 3 -7 19 -4 36 4 25 1 30 -17 30 -19 0 -21 -6 -21 -50z"></path><path id="pTs4aiuG1" d="M90 175 c0 -10 10 -15 34 -15 34 0 35 -1 38 -42 2 -35 7 -43 23 -43 16 0 21 8 23 43 3 41 4 42 38 42 24 0 34 5 34 15 0 12 -17 15 -95 15 -78 0 -95 -3 -95 -15z"></path></g></g></svg>
