<?xml version="1.0" standalone="no"?><!DOCTYPE svg PUBLIC "-//W3C//DTD SVG 1.1//EN" "http://www.w3.org/Graphics/SVG/1.1/DTD/svg11.dtd"><svg t="1622692860667" class="icon" viewBox="0 0 1108 1024" version="1.1" xmlns="http://www.w3.org/2000/svg" p-id="11141" xmlns:xlink="http://www.w3.org/1999/xlink" width="51.9375" height="48"><defs><style type="text/css"></style></defs><path d="M669.32075 1023.631837h-17.211631a2280.725181 2280.725181 0 0 1-290.342726-14.680509c-99.450092-13.207856-157.021617-35.251629-175.982024-67.32785A85.413869 85.413869 0 0 1 190.984675 865.183587a211.325693 211.325693 0 0 0 8.145611-23.424385c11.044897-83.29693 132.952946-136.634578 230.838345-179.479574a567.615658 567.615658 0 0 0 110.448968-56.697137 59.826525 59.826525 0 0 0 20.064896-27.612242 80.167543 80.167543 0 0 0-15.416835-48.827649 257.392117 257.392117 0 0 1-63.232035-66.315401 375.848636 375.848636 0 0 1-61.483259-220.207631 306.633949 306.633949 0 0 1 47.447036-154.030291A197.565593 197.565593 0 0 1 641.846569 0.276122h9.20408a199.820592 199.820592 0 0 1 171.379983 88.681318 302.538133 302.538133 0 0 1 50.024179 153.662128 373.961799 373.961799 0 0 1-61.483259 224.901712 216.848142 216.848142 0 0 1-63.232035 61.667341 80.075502 80.075502 0 0 0-7.731427 41.832547 61.759382 61.759382 0 0 0 12.379488 34.791425 572.861984 572.861984 0 0 0 110.909173 56.927239l2.208979 0.966428c33.824997 14.910611 68.800503 30.327446 101.981214 47.953261h-264.893443c-0.552245 0-57.387443 0.552245-57.387443 45.330097v229.319671a39.347445 39.347445 0 0 0 23.792549 37.460609z m-537.518314-100.646623a454.313424 454.313424 0 0 1-129.179273-43.259179l-0.920408-14.358366a229.319671 229.319671 0 0 1 2.485102-70.825401c9.204081-68.294279 101.244888-112.243764 175.567839-147.541414l0.644286-0.322143a455.601995 455.601995 0 0 0 80.811829-44.225608 48.643567 48.643567 0 0 0 10.032448-27.842344 64.428565 64.428565 0 0 0-6.120714-34.055099A270.323851 270.323851 0 0 1 165.995596 309.717316a248.510179 248.510179 0 0 1 37.368567-123.932947 156.469372 156.469372 0 0 1 138.429374-71.147544h7.731428a170.781718 170.781718 0 0 1 62.771831 11.643162c-19.006427 45.514179-76.992135 184.081614 69.030605 396.419757a59.826525 59.826525 0 0 1 26.369691 47.170913 47.953261 47.953261 0 0 1-24.02265 34.929487 147.587434 147.587434 0 0 1-35.435711 16.107141l-2.623163 0.920408-2.20898 0.782347c-197.565593 74.783156-282.381196 173.128758-294.990786 234.704058a528.728417 528.728417 0 0 1-16.291223 65.809177z" p-id="11142" fill="#01d3f9"></path><path d="M950.091232 765.273291H727.582581a36.172037 36.172037 0 0 0-37.276527 36.172037v183.069166a36.172037 36.172037 0 0 0 37.276527 36.172037h222.508651a36.172037 36.172037 0 0 0 37.276527-36.172037v-181.964676a36.49418 36.49418 0 0 0-37.276527-37.276527z m152.373556 18.408162a8.283673 8.283673 0 0 0-8.789897 1.104489l-73.632646 57.01928a9.480203 9.480203 0 0 0-3.267448 6.580918v90.982338a7.823469 7.823469 0 0 0 3.267448 6.580918l73.632646 57.01928a8.375713 8.375713 0 0 0 5.476428 2.208979 8.283673 8.283673 0 0 0 4.60204-1.10449 7.317244 7.317244 0 0 0 4.602041-7.685407v-204.974878a8.237652 8.237652 0 0 0-5.890612-7.731427z" p-id="11143" fill="#01d3f9"></path></svg>