<?xml version="1.0" standalone="no"?><!DOCTYPE svg PUBLIC "-//W3C//DTD SVG 1.1//EN" "http://www.w3.org/Graphics/SVG/1.1/DTD/svg11.dtd"><svg t="1621588493720" class="icon" viewBox="0 0 1024 1024" version="1.1" xmlns="http://www.w3.org/2000/svg" p-id="3294" width="48" height="48" xmlns:xlink="http://www.w3.org/1999/xlink"><defs><style type="text/css"></style></defs><path d="M819.2 51.2c-84.8384 0-153.6 65.1264-153.6 145.5104 0 126.6176 153.6 291.0208 153.6 291.0208s153.6-164.4032 153.6-291.0208C972.8 116.3264 904.0384 51.2 819.2 51.2z m-0.512 223.1296c-42.4448 0-76.8-32.5632-76.8-72.704 0-40.192 34.3552-72.8064 76.8-72.8064 42.3936 0 76.8 32.6144 76.8 72.7552 0 19.3024-8.0896 37.8368-22.528 51.456a79.0016 79.0016 0 0 1-54.272 21.2992zM281.6 293.7344c-127.232 0-230.4 101.376-230.4 226.304C51.2 717.056 281.6 972.8 281.6 972.8s230.4-255.7952 230.4-452.7104c0-125.0304-103.168-226.3552-230.4-226.3552z m0 339.5072C210.944 633.2416 153.6 578.9696 153.6 512c0-66.9696 57.344-121.2416 128-121.2416S409.6 445.0304 409.6 512c0 66.9696-57.344 121.2416-128 121.2416z m394.4448-84.0192c-7.68 22.6304-11.2128 46.848-10.2912 71.0656v12.9536h39.5776v-11.6224a155.5968 155.5968 0 0 1 7.1168-53.6064c1.28-3.5328 2.7648-6.9632 4.352-10.2912l-34.816-21.504c-2.1504 3.8912-4.096 8.192-5.9392 13.0048zM716.8 495.4624l30.9248 40.8064c20.3776-21.0944 45.056-35.5328 71.4752-41.8816l-10.1376-55.1424A193.024 193.024 0 0 0 716.8 495.4624z m-358.4 438.528l4.4032 38.8096c35.328-2.304 68.608-5.8368 97.9968-9.728l-8.3456-38.7584a1175.04 1175.04 0 0 1-94.0544 9.728z m262.8096-98.816L614.4 839.68l31.488 36.096 9.472-6.2976c28.16-19.968 49.408-46.1824 61.44-75.776l-49.8688-14.8992c-8.8064 22.0672-24.6272 41.6256-45.7216 56.3712zM512 893.44l10.1376 30.9248c31.744-4.608 62.6176-11.3152 92.2624-20.1216l-18.944-28.416c-26.8288 7.7312-54.784 13.6192-83.456 17.6128z m153.6-208.384c0 18.688 2.8672 37.7856 2.8672 56.9344v32.1536l47.872 4.7104c0.6144-12.288 0.6144-24.576 0-36.864 0-20.0704 0-40.6016-2.8672-60.16L665.6 685.056z" p-id="3295" fill="currentColor"></path></svg>
