<svg
 xmlns="http://www.w3.org/2000/svg"
 xmlns:xlink="http://www.w3.org/1999/xlink"
 width="18px" height="24px">
<path fill-rule="evenodd"  fill="currentColor"
 d="M17.250,10.884 C17.250,15.056 14.147,18.495 10.125,19.041 L10.125,21.750 L13.875,21.750 C14.496,21.750 15.000,22.254 15.000,22.875 C15.000,23.496 14.496,24.000 13.875,24.000 L9.000,24.000 L4.125,24.000 C3.504,24.000 3.000,23.496 3.000,22.875 C3.000,22.254 3.504,21.750 4.125,21.750 L7.875,21.750 L7.875,19.041 C3.853,18.495 0.750,15.056 0.750,10.884 C0.750,10.882 0.750,10.880 0.750,10.878 C0.750,10.877 0.750,10.876 0.750,10.875 C0.750,10.254 1.254,9.750 1.875,9.750 C2.496,9.750 3.000,10.254 3.000,10.875 L3.000,10.875 C3.002,14.188 5.687,16.873 9.000,16.875 C12.313,16.873 14.998,14.188 15.000,10.875 L15.000,10.875 C15.000,10.254 15.504,9.750 16.125,9.750 C16.746,9.750 17.250,10.254 17.250,10.875 C17.250,10.876 17.250,10.877 17.250,10.878 C17.250,10.880 17.250,10.882 17.250,10.884 ZM9.000,15.000 L9.000,15.000 C6.515,15.000 4.500,12.985 4.500,10.500 L4.500,4.500 C4.500,2.015 6.515,0.000 9.000,0.000 L9.000,0.000 C11.485,0.000 13.500,2.015 13.500,4.500 L13.500,10.500 C13.500,12.985 11.485,15.000 9.000,15.000 Z"/>
</svg>

