<svg class="img-fluid" id="outputsvg" xmlns="http://www.w3.org/2000/svg" style="transform: none; transform-origin: 50% 50%; cursor: move;" width="37" height="37" viewBox="0 0 370 370"><g id="l7jp5dJrUKvCZO7kHcGYwB3" fill="currentColor" style="transform: none;"><g><path id="pEjCCvOKv" d="M90 244 l-31 -27 32 -33 c37 -38 49 -42 49 -16 0 11 14 25 36 35 42 21 40 41 -4 45 -18 2 -32 7 -32 13 0 16 -17 10 -50 -17z"></path><path id="pSRmlnjPe" d="M240 211 c0 -11 -9 -23 -20 -26 -26 -8 -52 -34 -45 -46 4 -5 19 -9 36 -9 19 0 29 -5 29 -15 0 -22 13 -18 43 13 34 35 34 42 -1 75 -33 32 -42 34 -42 8z"></path></g></g></svg>
