<svg class="img-fluid" id="outputsvg" xmlns="http://www.w3.org/2000/svg" style="transform: none; transform-origin: 50% 50%; cursor: move;" width="37" height="37" viewBox="0 0 370 370"><g id="l3AHquFqeDHjU7E49Hqil4m" fill="currentColor" style="transform: none;"><g><path id="pBDrRdD0u" d="M128 284 c-76 -41 -74 -159 2 -199 52 -27 60 -21 60 40 0 30 0 57 0 60 0 3 -3 5 -7 6 -5 1 -7 -13 -5 -30 4 -35 -7 -40 -31 -13 -33 36 -8 92 40 92 41 0 69 -60 41 -88 -9 -9 -8 -17 2 -37 18 -33 26 -32 50 8 63 103 -46 219 -152 161z"></path></g></g></svg>
