<?xml version="1.0" standalone="no"?><!DOCTYPE svg PUBLIC "-//W3C//DTD SVG 1.1//EN" "http://www.w3.org/Graphics/SVG/1.1/DTD/svg11.dtd"><svg t="1628148521593" class="icon" viewBox="0 0 1024 1024" version="1.1" xmlns="http://www.w3.org/2000/svg" p-id="11567" width="64" height="64" xmlns:xlink="http://www.w3.org/1999/xlink"><defs><style type="text/css"></style></defs><path d="M511.989767 386.987798c-56.499805 0-108.707864 30.142507-136.958278 79.072917s-28.250414 109.215424 0 158.14481c28.250414 48.930409 80.45745 79.072917 136.958278 79.072916 86.60138-1.030469 156.26295-71.526033 156.26295-158.134577 0-86.606497-69.661569-157.104107-156.26295-158.134576v-0.02149z m378.953821-118.559233H718.661803c-13.06148-9.4093-28.564569-25.987884-42.835597-55.448869-17.294898-35.733852-79.666434-36.830837-79.666434-36.830837H395.313418s-20.544919-5.108345-44.694945 36.427654c-16.376992 28.116361-31.163767 45.546336-45.098128 55.852052H133.035946c-31.028691 0-56.142671 26.660196-56.142672 59.459207v460.703707c0 32.843012 25.113981 59.458183 56.142672 59.458183h757.907642c31.024597 0 56.163137-26.615171 56.163138-59.458183V327.864236c0-32.797987-25.13854-59.435671-56.163138-59.435671zM511.877203 743.000118c-109.140723-0.036839-197.59838-88.524173-197.59838-197.665919 0-109.171422 88.470961-197.687408 197.59838-197.687408 109.148909 0 197.643406 88.494497 197.643406 197.687408 0 109.149932-88.470961 197.640336-197.61987 197.665919h-0.023536z m283.403629-355.944782a32.93818 32.93818 0 0 1-32.889062-32.999578c0-18.23634 14.741749-33.000602 32.911574-33.000601 18.168802 0 32.933063 14.764262 32.933064 33.000601s-14.764262 33.000602-32.933064 33.000602h-0.022512v-0.001024z" p-id="11568" fill="#ffffff"></path></svg>